<?xml version="1.0" encoding="UTF-8" standalone="no"?>
<!-- Created with Inkscape (http://www.inkscape.org/) -->

<svg
   xmlns:dc="http://purl.org/dc/elements/1.1/"
   xmlns:cc="http://creativecommons.org/ns#"
   xmlns:rdf="http://www.w3.org/1999/02/22-rdf-syntax-ns#"
   xmlns:svg="http://www.w3.org/2000/svg"
   xmlns="http://www.w3.org/2000/svg"
   xmlns:sodipodi="http://sodipodi.sourceforge.net/DTD/sodipodi-0.dtd"
   xmlns:inkscape="http://www.inkscape.org/namespaces/inkscape"
   width="64.451714mm"
   height="15.489604mm"
   viewBox="0 0 64.451714 15.489604"
   version="1.1"
   id="svg8"
   inkscape:version="0.92.5 (2060ec1f9f, 2020-04-08)"
   sodipodi:docname="logo.svg">
  <defs
     id="defs2" />
  <sodipodi:namedview
     id="base"
     pagecolor="#ffffff"
     bordercolor="#666666"
     borderopacity="1.0"
     inkscape:pageopacity="0.0"
     inkscape:pageshadow="2"
     inkscape:zoom="1.52"
     inkscape:cx="354.06282"
     inkscape:cy="-146.61492"
     inkscape:document-units="mm"
     inkscape:current-layer="layer1"
     showgrid="false"
     inkscape:window-width="1920"
     inkscape:window-height="986"
     inkscape:window-x="-11"
     inkscape:window-y="-11"
     inkscape:window-maximized="1"
     fit-margin-top="0"
     fit-margin-left="0"
     fit-margin-right="0"
     fit-margin-bottom="0" />
  <metadata
     id="metadata5">
    <rdf:RDF>
      <cc:Work
         rdf:about="">
        <dc:format>image/svg+xml</dc:format>
        <dc:type
           rdf:resource="http://purl.org/dc/dcmitype/StillImage" />
        <dc:title></dc:title>
      </cc:Work>
    </rdf:RDF>
  </metadata>
  <g
     inkscape:label="Layer 1"
     inkscape:groupmode="layer"
     id="layer1"
     transform="translate(-12.154212,-20.39471)">
    <path
       style="fill:#e51138;fill-opacity:1;stroke-width:0.03024204"
       d="m 16.602379,22.112411 c -0.314241,0.0013 -0.38129,0.01122 -0.613409,0.09327 -0.32095,0.113423 -0.638346,0.320546 -0.850554,0.555039 -0.0996,0.110065 -0.300892,0.422863 -0.529293,0.822504 -1.240364,2.170305 -2.066763,4.278898 -2.368447,6.043149 -0.09257,0.541315 -0.115716,1.604443 -0.04542,2.086702 0.293698,2.015005 1.46881,3.226643 3.417404,3.523786 0.422555,0.06444 1.485838,0.03953 1.86969,-0.04377 1.516709,-0.329229 2.886616,-1.266579 3.608663,-2.469216 0.560586,-0.933711 0.697202,-1.904262 0.404252,-2.872106 -0.03501,-0.115667 -0.224458,-0.543696 -0.420968,-0.951204 -0.45542,-0.944441 -0.580071,-1.272352 -0.598932,-1.575666 -0.01381,-0.222236 -0.01121,-0.23324 0.07755,-0.332653 l 0.09179,-0.102779 0.443707,-0.0098 0.443707,-0.0098 -0.01962,0.206438 c -0.01079,0.113522 -0.02716,0.246096 -0.03638,0.294619 l -0.01685,0.08825 0.101832,-0.0604 c 0.09986,-0.05916 1.788595,-1.101508 1.802352,-1.11246 0.01685,-0.01344 -1.608341,-1.161067 -1.627458,-1.149255 -0.01169,0.0072 -0.03104,0.135719 -0.04288,0.285533 l -0.02156,0.272409 h -0.451568 c -1.047453,0 -1.653301,0.153924 -2.038087,0.517841 -0.230132,0.217644 -0.325133,0.444655 -0.340223,0.812811 -0.01578,0.385266 0.05158,0.699662 0.374305,1.747364 0.396118,1.285984 0.41566,1.372984 0.398107,1.772287 -0.02526,0.574666 -0.205098,0.996824 -0.609447,1.430945 -0.371578,0.398931 -0.868949,0.676252 -1.493793,0.832895 -0.221835,0.05564 -0.3467,0.06583 -0.79255,0.0649 -0.448482,-0.0013 -0.565867,-0.01109 -0.769401,-0.0671 -0.96899,-0.266551 -1.552853,-1.007841 -1.710918,-2.172228 -0.05432,-0.400171 -0.02357,-1.370715 0.05883,-1.855041 0.2319,-1.363403 0.746162,-2.813336 1.635726,-4.61191 0.335991,-0.67933 0.510381,-1.006921 0.984873,-1.849901 0.0484,-0.08599 0.07672,-0.167641 0.06291,-0.181456 -0.01381,-0.01383 -0.183916,-0.02459 -0.37797,-0.02387 z m 0.542525,6.576454 c -0.491042,0 -0.996243,0.323684 -1.220493,0.782044 -0.09184,0.187711 -0.09822,0.221518 -0.09822,0.518368 0,0.304319 0.0043,0.325452 0.10372,0.5088 0.156968,0.289505 0.419646,0.485931 0.731952,0.54731 0.182726,0.03594 0.199572,0.03601 0.400823,0.0033 0.676982,-0.110867 1.177812,-0.730318 1.130056,-1.397751 C 18.154632,29.118263 17.687095,28.6891 17.144909,28.6891 Z"
       id="path3726"
       inkscape:connector-curvature="0" />
    <path
       style="fill:#000000;stroke-width:0.09154884"
       d="m 27.933621,20.395645 c -1.19279,-0.0059 -2.274416,0.01598 -2.274416,0.06956 0,0.03946 -0.143059,1.409231 -0.317739,3.043999 -0.761771,7.129172 -0.973932,9.396052 -0.91674,9.792687 0.159497,1.106106 0.802955,1.863285 1.875321,2.206649 0.125878,0.04031 1.032214,0.06484 2.014074,0.05473 1.772626,-0.01833 1.789071,-0.02022 2.334495,-0.287347 1.479455,-0.724585 2.272004,-2.269 2.401011,-4.678108 0.08229,-1.536784 -0.33675,-2.451422 -1.306001,-2.85 -0.224235,-0.09221 -0.407845,-0.190953 -0.408036,-0.219386 -1.9e-4,-0.02844 0.141935,-0.119608 0.315951,-0.20259 1.127312,-0.537584 1.776823,-1.995358 1.786096,-4.009025 0.0082,-1.782039 -0.730685,-2.596807 -2.56301,-2.826571 -0.444349,-0.0557 -1.748216,-0.08889 -2.941006,-0.09459 z m 0.150555,1.92038 h 1.024381 c 0.563469,0 1.130199,0.04031 1.259333,0.08941 0.408169,0.155183 0.600443,0.59837 0.600789,1.385743 6.52e-4,1.361974 -0.314849,2.301888 -0.892421,2.658851 -0.276042,0.170603 -0.496881,0.210339 -1.34373,0.241922 -0.557417,0.02081 -1.035432,0.01507 -1.06211,-0.01272 -0.02668,-0.02779 0.05546,-1.02088 0.182561,-2.206832 z m 0.752417,6.060466 c 0.822291,0.0089 1.132665,0.142802 1.433848,0.553585 0.395563,0.539502 0.238719,3.086566 -0.242998,3.945898 -0.111582,0.199048 -0.346308,0.438113 -0.521756,0.531232 -0.344406,0.182806 -1.601243,0.232718 -1.982963,0.07868 -0.551196,-0.222438 -0.580508,-0.571705 -0.277149,-3.296658 l 0.198832,-1.785202 1.007037,-0.02433 c 0.139827,-0.0033 0.267679,-0.0046 0.385149,-0.0033 z"
       id="path19"
       inkscape:connector-curvature="0" />
    <text
       xml:space="preserve"
       style="font-style:normal;font-variant:normal;font-weight:normal;font-stretch:normal;font-size:18.30637169px;line-height:1.25;font-family:'Source Sans Pro';-inkscape-font-specification:'Source Sans Pro';letter-spacing:0px;word-spacing:0px;fill:#000000;fill-opacity:1;stroke:none;stroke-width:0.4576593"
       x="31.914684"
       y="36.51973"
       id="text3742"
       transform="scale(1.0400896,0.96145563)"><tspan
         sodipodi:role="line"
         id="tspan3740"
         x="31.914684"
         y="36.51973"
         style="font-style:normal;font-variant:normal;font-weight:600;font-stretch:normal;font-family:'Source Sans Pro';-inkscape-font-specification:'Source Sans Pro Semi-Bold';letter-spacing:-0.56564063px;stroke-width:0.4576593"
         rotate="3.5999999 3.5999999 3.5999999 3.5999999 0 0"
         dy="0 0 0 0 0.25999999">oodle</tspan></text>
  </g>
</svg>
