<?xml version="1.0" encoding="UTF-8" standalone="no"?>
<!-- Created with Inkscape (http://www.inkscape.org/) -->

<svg
   xmlns:dc="http://purl.org/dc/elements/1.1/"
   xmlns:cc="http://creativecommons.org/ns#"
   xmlns:rdf="http://www.w3.org/1999/02/22-rdf-syntax-ns#"
   xmlns:svg="http://www.w3.org/2000/svg"
   xmlns="http://www.w3.org/2000/svg"
   xmlns:sodipodi="http://sodipodi.sourceforge.net/DTD/sodipodi-0.dtd"
   xmlns:inkscape="http://www.inkscape.org/namespaces/inkscape"
   width="3.438792mm"
   height="3.4244103mm"
   viewBox="0 0 3.4387919 3.4244103"
   version="1.1"
   id="svg8"
   inkscape:version="0.92.5 (2060ec1f9f, 2020-04-08)"
   sodipodi:docname="box_unchecked.svg">
  <defs
     id="defs2" />
  <sodipodi:namedview
     id="base"
     pagecolor="#ffffff"
     bordercolor="#666666"
     borderopacity="1.0"
     inkscape:pageopacity="0.0"
     inkscape:pageshadow="2"
     inkscape:zoom="2.625845"
     inkscape:cx="155.44937"
     inkscape:cy="-89.16856"
     inkscape:document-units="mm"
     inkscape:current-layer="layer1"
     showgrid="false"
     inkscape:window-width="1920"
     inkscape:window-height="986"
     inkscape:window-x="-11"
     inkscape:window-y="-11"
     inkscape:window-maximized="1"
     inkscape:pagecheckerboard="true"
     fit-margin-top="0"
     fit-margin-left="0"
     fit-margin-right="0"
     fit-margin-bottom="0" />
  <metadata
     id="metadata5">
    <rdf:RDF>
      <cc:Work
         rdf:about="">
        <dc:format>image/svg+xml</dc:format>
        <dc:type
           rdf:resource="http://purl.org/dc/dcmitype/StillImage" />
        <dc:title />
      </cc:Work>
    </rdf:RDF>
  </metadata>
  <g
     inkscape:label="Layer 1"
     inkscape:groupmode="layer"
     id="layer1"
     transform="translate(-42.918781,-121.81641)">
    <path
       style="fill:#d40000;stroke-width:0.02699082"
       d="m 43.926546,124.42784 c -0.04198,-0.0277 -0.107512,-0.0942 -0.145638,-0.14774 l -0.06932,-0.0974 0.06748,-0.10174 c 0.03711,-0.056 0.155912,-0.19635 0.264001,-0.31198 l 0.196526,-0.21024 -0.200791,-0.20812 c -0.110434,-0.11446 -0.227992,-0.24717 -0.26124,-0.29491 -0.05609,-0.0805 -0.05755,-0.0924 -0.02017,-0.16468 0.05164,-0.0999 0.213495,-0.24219 0.300144,-0.26394 0.09401,-0.0236 0.179976,0.0362 0.421314,0.29314 l 0.206079,0.21938 0.185288,-0.19007 c 0.101908,-0.10453 0.238222,-0.22801 0.30292,-0.27439 0.110515,-0.0792 0.122167,-0.082 0.192593,-0.0456 0.08062,0.0417 0.297068,0.27353 0.297068,0.31819 0,0.0149 -0.123231,0.15234 -0.273847,0.30539 l -0.273847,0.27829 0.208139,0.22125 c 0.114476,0.12169 0.239124,0.26188 0.276997,0.31153 0.06579,0.0863 0.06688,0.0933 0.02436,0.15818 -0.05507,0.084 -0.283773,0.25455 -0.342658,0.25546 -0.06743,0.001 -0.235863,-0.12193 -0.434991,-0.31758 l -0.181561,-0.17839 -0.225769,0.22037 c -0.288146,0.28125 -0.372445,0.31832 -0.513079,0.22559 z"
       id="path3789"
       inkscape:connector-curvature="0" />
    <path
       style="fill:#000000;stroke-width:0.05457962"
       d="m 44.646737,121.8169 c -1.802844,-2.1e-4 -1.727673,-0.0754 -1.727466,1.72746 1.87e-4,1.15118 0.0086,1.26071 0.109479,1.42622 0.06011,0.0986 0.164397,0.20198 0.23175,0.22983 0.06735,0.0278 0.720051,0.0455 1.450517,0.0391 l 1.32814,-0.0116 0.159155,-0.17823 0.159261,-0.17824 v -1.27825 c 0,-0.70301 -0.02403,-1.34112 -0.0533,-1.41811 -0.02927,-0.077 -0.133654,-0.18908 -0.231964,-0.24902 -0.164844,-0.1005 -0.275617,-0.109 -1.425572,-0.10916 z m 0.370758,0.44623 c 0.405922,0.003 0.742975,0.0173 0.792043,0.0436 0.106747,0.0571 0.111398,0.10782 0.111398,1.22026 0,0.82993 -0.01872,1.17929 -0.06556,1.22612 -0.04684,0.0468 -0.39684,0.0654 -1.229321,0.0654 h -1.163974 l -0.05629,-0.14807 c -0.06637,-0.17455 -0.04621,-2.27588 0.02249,-2.34457 0.04479,-0.0448 0.912667,-0.0684 1.589205,-0.0628 z"
       id="path32-1-6"
       inkscape:connector-curvature="0" />
  </g>
</svg>
